<?xml version="1.0" encoding="UTF-8" standalone="no"?>
<!-- Created with Inkscape (http://www.inkscape.org/) -->

<svg
   width="512"
   height="512"
   viewBox="0 0 512 512"
   version="1.1"
   id="svg1"
   xml:space="preserve"
   inkscape:version="1.4.2 (ebf0e940d0, 2025-05-08)"
   sodipodi:docname="kickme_logo_v1.svg"
   inkscape:export-filename="kickme_logo_v1.png"
   inkscape:export-xdpi="96"
   inkscape:export-ydpi="96"
   xmlns:inkscape="http://www.inkscape.org/namespaces/inkscape"
   xmlns:sodipodi="http://sodipodi.sourceforge.net/DTD/sodipodi-0.dtd"
   xmlns="http://www.w3.org/2000/svg"
   xmlns:svg="http://www.w3.org/2000/svg"><sodipodi:namedview
     id="namedview1"
     pagecolor="#ffffff"
     bordercolor="#000000"
     borderopacity="0.25"
     inkscape:showpageshadow="2"
     inkscape:pageopacity="0.0"
     inkscape:pagecheckerboard="0"
     inkscape:deskcolor="#d1d1d1"
     inkscape:document-units="px"
     showguides="true"
     inkscape:zoom="1.1318359"
     inkscape:cx="173.61174"
     inkscape:cy="149.75669"
     inkscape:window-width="2560"
     inkscape:window-height="1368"
     inkscape:window-x="0"
     inkscape:window-y="0"
     inkscape:window-maximized="1"
     inkscape:current-layer="svg1"><sodipodi:guide
       position="250.20964,441.40402"
       orientation="1,0"
       id="guide1"
       inkscape:locked="false" /><sodipodi:guide
       position="-55.914514,261.79036"
       orientation="0,-1"
       id="guide2"
       inkscape:locked="false" /></sodipodi:namedview><defs
     id="defs1"><linearGradient
       id="linearGradient3"
       inkscape:swatch="gradient"><stop
         style="stop-color:#000000;stop-opacity:1;"
         offset="0"
         id="stop3" /><stop
         style="stop-color:#000000;stop-opacity:0;"
         offset="1"
         id="stop4" /></linearGradient></defs><g
     inkscape:label="Layer 1"
     inkscape:groupmode="layer"
     id="layer1"><path
       id="path2"
       style="fill:#eab7c9;fill-opacity:1;stroke:#000000;stroke-width:25;stroke-dasharray:none;stroke-opacity:1"
       d="M 451.29615,246.49302 C 426.33223,147.70481 357.52161,48.621758 250.3221,48.621758 c -107.19951,0 -194.101885,86.911742 -194.101885,194.122802 -1e-6,107.21106 92.104735,188.04303 200.974055,197.87126 121.46364,10.96519 243.84522,2.72345 194.10188,-194.1228 z"
       sodipodi:nodetypes="sssss"
       inkscape:label="stomach" /><circle
       style="fill:#f0a567;fill-opacity:1;stroke:none;stroke-width:25;stroke-linecap:round;stroke-linejoin:round;stroke-miterlimit:4.9;stroke-dasharray:none;stroke-dashoffset:0;stroke-opacity:1;paint-order:markers fill stroke"
       id="path7"
       cx="249.15273"
       cy="249.15273"
       r="95.420189" /><g
       style="display:inline;fill:#000000;fill-opacity:1"
       id="g7"
       transform="matrix(0.025,0,0,0.025,205,265)"><path
         d="m 3117.1514,-799.94194 q -278.29,0 -470.4427,-192.15278 -192.1527,-192.15268 -192.1527,-470.44268 0,-278.2901 192.1527,-470.4428 192.1527,-192.1526 470.4427,-192.1526 278.2901,0 470.4428,192.1526 192.1526,192.1527 192.1526,470.4428 0,278.29 -192.1526,470.44268 -192.1527,192.15278 -470.4428,192.15278 z m -2650.38155,0 q -278.29003,0 -470.4426775,-192.15278 -192.1526425,-192.15268 -192.1526425,-470.44268 0,-278.2901 192.1526425,-470.4428 192.1526475,-192.1526 470.4426775,-192.1526 278.29013,0 470.44275,192.1526 192.1526,192.1527 192.1526,470.4428 0,278.29 -192.1526,470.44268 -192.15262,192.15278 -470.44275,192.15278 z M 1791.9607,1982.9586 q -795.11456,0 -1437.83207,-437.3129 -642.71755,-437.313 -947.51142,-1152.91604 H 4177.304 q -304.7938,715.60304 -947.5114,1152.91604 -642.7175,437.3129 -1437.8319,437.3129 z m 0,2120.3053 q -993.89314,0 -1861.893128,-377.6794 -867.999892,-377.6794 -1510.717472,-1020.3969 -642.7175,-642.7175 -1020.3969,-1510.7174 -377.6794,-868.00004 -377.6794,-1861.89314 0,-993.89306 377.6794,-1861.89306 377.6794,-868 1020.3969,-1510.7175 642.71758,-642.7176 1510.717472,-1020.3969 867.999988,-377.6794 1861.893128,-377.6794 993.893,0 1861.893,377.6794 868,377.6793 1510.7175,1020.3969 642.7176,642.7175 1020.3969,1510.7175 377.6794,868 377.6794,1861.89306 0,993.8931 -377.6794,1861.89314 -377.6793,867.9999 -1020.3969,1510.7174 -642.7175,642.7175 -1510.7175,1020.3969 -868,377.6794 -1861.893,377.6794 z m 0,-1060.1526 q 1537.2212,0 2623.8777,-1086.6565 1086.6565,-1086.6564 1086.6565,-2623.87774 0,-1537.22126 -1086.6565,-2623.87776 -1086.6565,-1086.6565 -2623.8777,-1086.6565 h -159.023 q -79.5114,0 -159.0228,26.5038 -79.5115,79.5115 -106.0153,172.2749 -26.5038,92.7634 -26.5038,198.7786 0,278.2901 192.1526,470.4427 192.1527,192.1526 470.4428,192.1526 119.2672,0 218.6565,-39.7556 99.3893,-39.7558 205.4045,-39.7558 159.0229,0 265.0382,119.2672 106.0152,119.2672 106.0152,278.29 0,304.7939 -284.916,390.9314 -284.916,86.1374 -510.1984,86.1374 -596.3359,0 -1027.02294,-430.687 -430.68689,-430.6871 -430.68689,-1027.0229 v -79.5115 q 0,-39.7557 13.25182,-106.0153 -1099.9083,397.5573 -1789.00759,1338.4428 -689.0992,940.8855 -689.0992,2160.06096 0,1537.22134 1086.65654,2623.87774 1086.65638,1086.6565 2623.87776,1086.6565 z m 0,-3710.53424 z"
         id="path1"
         style="fill:#000000;fill-opacity:1;stroke-width:13.2519" /></g></g><g
     inkscape:groupmode="layer"
     id="layer2"
     inkscape:label="Layer 2"
     style="display:inline" /></svg>
